<?xml version="1.0" encoding="UTF-8" standalone="no"?>
<!-- Created with Inkscape (http://www.inkscape.org/) -->

<svg
   width="219.66345mm"
   height="149.13675mm"
   viewBox="0 0 219.66345 149.13675"
   version="1.1"
   id="svg5"
   xmlns="http://www.w3.org/2000/svg"
   xmlns:svg="http://www.w3.org/2000/svg">
  <defs
     id="defs2" />
  <g
     id="layer1"
     transform="translate(-19.067961,-11.88)">
    <path
       style="fill:#ffffff;stroke-width:0.264583"
       id="path112"
       d="m 49.966594,47.041982 c -0.718365,5.378413 -1.969389,10.674921 -2.762126,16.039825 -0.265483,1.796666 -0.665062,3.595626 -0.633812,5.411533 0.08259,4.799388 1.028705,5.660321 3.012763,9.834486 1.624094,1.456531 3.04878,3.172095 4.872281,4.369599 10.899216,7.157572 23.186887,9.690118 34.706437,15.380149 1.092986,0.539875 2.091389,1.253162 3.13708,1.879743 1.232239,1.239723 2.783258,2.228903 3.696711,3.719183 2.09904,3.42453 2.174449,7.95405 1.869789,11.74942 -0.624498,7.77976 -3.089883,15.33663 -5.322554,22.75763 -1.456682,4.69482 -3.226813,9.29332 -4.399386,14.07382 -0.497228,2.02717 -0.810175,3.92278 -0.734589,5.99652 0.199882,0.94206 0.0485,0.55363 0.366721,1.1957 0,0 3.617272,1.56716 3.617272,1.56716 v 0 c -0.493387,-0.48188 -0.25527,-0.16186 -0.566571,-1.05404 -0.246049,-2.12949 -0.04302,-3.91871 0.382595,-6.04666 0.971315,-4.85623 2.625281,-9.53388 3.982805,-14.28647 1.427218,-5.02106 2.852354,-9.76425 3.971446,-14.87828 1.283354,-5.86468 3.259204,-14.15336 -0.140176,-19.81952 -0.932384,-1.55412 -2.551917,-2.57414 -3.827875,-3.86121 C 87.325236,96.525706 87.530992,96.245708 79.592272,93.052431 67.86087,88.333579 74.1422,91.556429 62.286332,86.343518 60.603473,85.603582 58.869103,84.917713 57.353279,83.877617 55.612844,82.683407 54.183226,81.089832 52.5982,79.695939 c -2.016024,-4.059693 -3.013929,-4.977408 -3.136955,-9.687984 -0.04733,-1.812073 0.347742,-3.609985 0.60556,-5.404246 0.765693,-5.328783 1.949129,-10.601153 3.110661,-15.853212 0,0 -3.210872,-1.708515 -3.210872,-1.708515 z" />
    <path
       style="fill:#ffffff;stroke-width:0.264583"
       id="path114"
       d="m 52.996049,37.271872 c 12.247409,-1.427527 24.599976,-1.061987 36.890314,-0.557458 4.486373,0.153064 9.021783,0.681236 13.045237,2.833483 0.10938,0.05851 -0.35715,0.136756 -0.28587,0.238276 5.81436,8.280421 -1.48607,-3.784391 3.68999,5.06658 3.23952,7.601353 2.64247,15.950774 1.89205,23.982654 -0.69549,5.862373 -0.30852,2.980608 -1.15312,8.646334 0,0 3.02996,1.599396 3.02996,1.599396 v 0 c 0.8077,-5.691066 0.42356,-2.801678 1.14802,-8.668747 0.53904,-5.745949 1.04032,-11.678463 0.22014,-17.429382 -0.41326,-2.89772 -0.92901,-3.962231 -1.8774,-6.67747 -1.03637,-1.850654 -1.91526,-3.858519 -3.65486,-5.216305 C 99.723174,36.236505 95.07662,35.056738 87.364079,34.86854 74.837739,34.519642 62.298735,34.284523 49.77989,35.004216 c 0,0 3.216159,2.267656 3.216159,2.267656 z" />
    <path
       style="fill:#ffffff;stroke-width:0.264583"
       id="path116"
       d="m 52.686349,48.475868 c 4.225673,11.139582 8.878525,22.119608 13.497229,33.102158 0,0 2.845993,1.308184 2.845993,1.308184 v 0 c -2.743964,-6.322279 -5.41954,-12.672218 -7.954224,-19.082064 -0.763368,-1.930445 -3.219072,-8.308269 -4.018068,-10.685259 -0.325054,-0.967031 -0.57054,-1.959012 -0.855808,-2.938515 0,0 -3.515122,-1.704504 -3.515122,-1.704504 z" />
    <path
       style="fill:#ffffff;stroke-width:0.264583"
       d="m 57.702857,40.165713 c -12.670182,8.052316 -22.603703,20.848695 -30.548572,33.377144 -8.091042,12.758949 -7.92,19.214611 -7.92,33.377143 0,3.01714 -0.37423,6.05758 0,9.05143 0.569236,4.55388 5.135108,14.29184 9.05143,16.97142 2.023181,1.38429 4.486378,1.98631 6.78857,2.82858 5.432417,1.98747 10.888112,3.92012 16.405715,5.65714 4.669663,1.47008 9.329102,3.06856 14.142857,3.96 11.574529,2.14343 18.122633,1.69714 29.417142,1.69714 14.729951,0 24.311581,2.46439 35.640001,-7.92 1.01641,-0.9317 4.44263,-12.69095 4.52571,-13.01143 2.85522,-11.01297 2.26286,-22.10574 2.26286,-33.377138 0,-13.33936 -0.37867,-21.123706 -5.65714,-33.942858 -0.87569,-2.126673 -4.27362,-8.506219 -6.78858,-10.182855 -2.55416,-1.702776 -5.9817,-1.697143 -9.05142,-1.697143 -10.68829,0 -17.38848,4.187097 -24.325718,12.445714 -1.628656,1.938877 -11.314284,11.861575 -11.314284,17.537141"
       id="path235" />
    <path
       style="fill:#ffffff;stroke-width:0.264583"
       d="M 238.73142,11.88 39.599999,54.874286"
       id="path237" />
  </g>
</svg>
